<svg width="25" height="25" viewBox="0 0 25 25" fill="none" xmlns="http://www.w3.org/2000/svg">
<g id="icon-user">
<mask id="mask0_1_55" style="mask-type:luminance" maskUnits="userSpaceOnUse" x="0" y="0" width="25" height="25">
<rect id="Background" x="0.449951" y="0.500366" width="24" height="24" fill="white"/>
</mask>
<g mask="url(#mask0_1_55)">
<path id="Shape" fill-rule="evenodd" clip-rule="evenodd" d="M12.45 12.5004C10.6636 12.5004 9.01299 11.5474 8.11982 10.0004C7.22666 8.45336 7.22666 6.54737 8.11982 5.00037C9.01299 3.45336 10.6636 2.50037 12.4499 2.50037C14.2363 2.50037 15.8869 3.45336 16.7801 5.00037C17.6732 6.54737 17.6732 8.45336 16.7801 10.0004C15.8869 11.5474 14.2363 12.5004 12.45 12.5004H12.45ZM12.4499 10.5004C14.1068 10.5004 15.4499 9.15722 15.4499 7.50037C15.4499 5.84352 14.1068 4.50037 12.45 4.50037C10.7931 4.50036 9.44996 5.8435 9.44995 7.50035C9.44994 9.1572 10.7931 10.5004 12.4499 10.5004H12.4499ZM21.45 21.5004C21.45 21.8576 21.2594 22.1878 20.95 22.3664C20.6406 22.545 20.2594 22.545 19.95 22.3664C19.6406 22.1878 19.45 21.8576 19.45 21.5004V19.5004C19.45 17.8435 18.1068 16.5004 16.45 16.5004H8.44995C6.7931 16.5004 5.44995 17.8435 5.44995 19.5004V21.5004C5.44995 21.8576 5.25935 22.1878 4.94995 22.3664C4.64055 22.545 4.25935 22.545 3.94995 22.3664C3.64055 22.1878 3.44995 21.8576 3.44995 21.5004V19.5004C3.44995 16.7389 5.68853 14.5004 8.44995 14.5004H16.45C19.2114 14.5004 21.45 16.7389 21.45 19.5004V21.5004V21.5004Z" fill="#9E9E9E"/>
</g>
</g>
</svg>
