<svg width="25" height="25" viewBox="0 0 25 25" fill="none" xmlns="http://www.w3.org/2000/svg">
<g id="lock">
<mask id="mask0_1_75" style="mask-type:luminance" maskUnits="userSpaceOnUse" x="0" y="0" width="25" height="25">
<rect id="Background" x="0.450073" y="0.500366" width="24" height="24" fill="white"/>
</mask>
<g mask="url(#mask0_1_75)">
<path id="Shape" fill-rule="evenodd" clip-rule="evenodd" d="M15.9017 12.2101H7.77262C7.13126 12.2101 6.61133 12.73 6.61133 13.3714V19.1778C6.61133 19.8192 7.13126 20.3391 7.77262 20.3391H15.9017C16.543 20.3391 17.0629 19.8192 17.0629 19.1778V13.3714C17.0629 12.73 16.543 12.2101 15.9017 12.2101V12.2101ZM7.77265 11.0487C6.48993 11.0487 5.45007 12.0886 5.45007 13.3713V19.1777C5.45007 20.4605 6.48993 21.5003 7.77265 21.5003H15.9017C17.1844 21.5003 18.2243 20.4605 18.2243 19.1777V13.3713C18.2243 12.0886 17.1844 11.0487 15.9017 11.0487H7.77265V11.0487ZM7.77271 7.56488C7.77271 6.11277 8.5474 4.77097 9.80496 4.04491C11.0625 3.31885 12.6119 3.31885 13.8695 4.04491C15.127 4.77096 15.9017 6.11277 15.9017 7.56488V11.0488H14.7404V7.56488C14.7404 5.96148 13.4406 4.66166 11.8372 4.66166C10.2338 4.66165 8.934 5.96146 8.934 7.56487V11.0488H7.77271V7.56488V7.56488Z" fill="#9E9E9E"/>
</g>
</g>
</svg>
