<svg width="232" height="54" viewBox="0 0 232 54" fill="none" xmlns="http://www.w3.org/2000/svg">
<g id="foxhub logo">
<mask id="mask0_1_29" style="mask-type:luminance" maskUnits="userSpaceOnUse" x="0" y="0" width="232" height="54">
<rect id="Background" x="0.128418" width="231.521" height="53.027" fill="white"/>
</mask>
<g mask="url(#mask0_1_29)">
<g id="Group_751">
<g id="Group_749">
<path id="Path_1895" fill-rule="evenodd" clip-rule="evenodd" d="M0.300415 0V27.043L26.3474 16.786L0.300415 0Z" fill="white"/>
<path id="Path_1896" fill-rule="evenodd" clip-rule="evenodd" d="M25.6064 53.027L0.300415 27.043H51.6544L25.6064 53.027Z" fill="white" fill-opacity="0.2"/>
<path id="Rectangle_234" fill-rule="evenodd" clip-rule="evenodd" d="M25.6064 42.037L31.1013 47.5319L25.6064 53.0268L20.1115 47.5319L25.6064 42.037Z" fill="white" fill-opacity="0.25098"/>
<path id="Path_1897" fill-rule="evenodd" clip-rule="evenodd" d="M51.6544 0V27.043L25.6064 16.786L51.6544 0Z" fill="white"/>
<path id="Path_1898" fill-rule="evenodd" clip-rule="evenodd" d="M0.128418 27.043L25.6064 42.037L51.6544 27.043L25.8914 16.496L0.128418 27.043Z" fill="white" fill-opacity="0.8"/>
</g>
<path id="Path_1899" fill-rule="evenodd" clip-rule="evenodd" d="M69.8134 11.6439H87.3694V15.9929H74.3634V24.2479H86.0814V28.5159H74.3634V40.4759H69.8134V11.6439ZM106.698 41.12C104.659 41.1416 102.638 40.744 100.758 39.952C98.9888 39.2023 97.3819 38.1155 96.0274 36.752C94.6734 35.3784 93.6057 33.7496 92.8864 31.96C92.1278 30.0861 91.7445 28.0815 91.7584 26.06C91.7427 24.0435 92.126 22.0437 92.8864 20.176C93.6123 18.3898 94.6792 16.7622 96.0274 15.384C97.3774 14.0097 98.985 12.9152 100.758 12.163C102.638 11.3709 104.659 10.9734 106.698 10.995C108.729 10.9796 110.742 11.3787 112.613 12.168C114.395 12.9166 116.01 14.0114 117.365 15.389C118.716 16.7651 119.785 18.391 120.513 20.176C121.273 22.0422 121.657 24.0401 121.641 26.055C121.655 28.0766 121.272 30.0812 120.513 31.9551C119.794 33.7446 118.726 35.3735 117.372 36.747C116.011 38.1168 114.394 39.2061 112.613 39.953C110.742 40.7401 108.729 41.1372 106.698 41.12H106.698ZM106.698 36.771C108.078 36.7793 109.445 36.5195 110.725 36.006C111.958 35.5156 113.075 34.7754 114.007 33.832C114.955 32.8599 115.701 31.7102 116.202 30.4489C116.754 29.0524 117.028 27.5614 117.007 26.06C117.028 24.5584 116.754 23.0674 116.202 21.6709C115.701 20.4096 114.955 19.26 114.007 18.2879C113.075 17.3445 111.958 16.6043 110.725 16.114C109.445 15.6004 108.078 15.3406 106.698 15.349C105.319 15.3406 103.951 15.6004 102.671 16.114C101.439 16.6043 100.322 17.3445 99.3894 18.288C98.442 19.26 97.696 20.4097 97.1944 21.671C96.6425 23.0675 96.369 24.5585 96.3894 26.0599C96.369 27.5615 96.6425 29.0525 97.1944 30.449C97.696 31.7103 98.442 32.8599 99.3894 33.832C100.322 34.7754 101.439 35.5156 102.671 36.006C103.951 36.5212 105.319 36.7828 106.698 36.776L106.698 36.771ZM133.919 25.4959L125.019 11.6439H130.619L136.899 21.8759H137.141L143.423 11.6479H149.023L140.123 25.4999L149.664 40.4759H144.107L137.141 29.4019H136.899L129.933 40.4759H124.376L133.919 25.4959ZM155.419 11.6439H157.996V24.5299H174.103V11.6439H176.68V40.4759H174.103V26.9459H157.999V40.4759H155.422L155.419 11.6439ZM194.603 41.1199C193.148 41.1395 191.703 40.8657 190.355 40.3149C189.107 39.7959 187.987 39.011 187.073 38.0149C186.14 36.9878 185.421 35.7846 184.959 34.4759C184.447 33.0144 184.195 31.4745 184.214 29.9259V11.6439H186.791V30.0869C186.782 31.2355 186.959 32.378 187.314 33.47C187.635 34.466 188.148 35.3894 188.824 36.1879C189.495 36.9623 190.326 37.5808 191.26 37.9999C192.313 38.4604 193.454 38.6869 194.602 38.6639C195.738 38.6841 196.863 38.4575 197.902 37.9999C198.841 37.5776 199.678 36.9599 200.358 36.1879C201.046 35.3939 201.566 34.4695 201.888 33.4699C202.244 32.3779 202.421 31.2354 202.411 30.0869V11.6439H204.988V29.9259C205.009 31.4708 204.772 33.0084 204.288 34.4758C203.853 35.7852 203.154 36.9915 202.234 38.0199C201.326 39.0218 200.204 39.8077 198.952 40.3199C197.57 40.8727 196.092 41.1446 194.603 41.1199V41.1199ZM212.482 11.644H222.67C223.717 11.6391 224.755 11.8304 225.73 12.208C226.673 12.5688 227.54 13.1011 228.287 13.778C229.027 14.4517 229.623 15.2681 230.039 16.178C230.475 17.1317 230.695 18.1697 230.683 19.218C230.714 20.5668 230.319 21.8908 229.555 23.003C228.798 24.0831 227.771 24.9452 226.575 25.503V25.664C228.024 26.101 229.298 26.9813 230.219 28.181C231.169 29.3913 231.674 30.891 231.649 32.429C231.661 33.5533 231.428 34.6666 230.964 35.691C230.528 36.6559 229.906 37.5249 229.132 38.248C228.35 38.9702 227.432 39.5312 226.432 39.899C225.397 40.2861 224.299 40.4816 223.193 40.476H212.482V11.644ZM222.63 24.53C223.405 24.5415 224.173 24.3906 224.885 24.087C225.531 23.8093 226.118 23.4131 226.617 22.919C227.096 22.4428 227.473 21.8743 227.724 21.248C227.978 20.628 228.108 19.9647 228.107 19.295C228.109 18.6318 227.979 17.9748 227.725 17.3621C227.471 16.7472 227.102 16.1867 226.637 15.711C226.158 15.2209 225.591 14.8248 224.966 14.543C224.282 14.2394 223.541 14.0883 222.792 14.1L215.061 14.1V24.529L222.63 24.53ZM223.476 38.02C224.224 38.0262 224.965 37.8753 225.65 37.577C226.311 37.2887 226.912 36.8789 227.422 36.369C227.932 35.8621 228.336 35.26 228.613 34.597C228.896 33.9213 229.04 33.1955 229.036 32.463C229.041 31.7348 228.89 31.0139 228.593 30.349C228.301 29.6959 227.892 29.1021 227.385 28.597C226.866 28.0804 226.25 27.6701 225.573 27.389C224.859 27.0905 224.092 26.9398 223.318 26.946H215.063V38.02H223.476Z" fill="white"/>
</g>
</g>
</g>
</svg>
