<svg width="24" height="24" viewBox="0 0 24 24" fill="none" xmlns="http://www.w3.org/2000/svg">
<g id="chevron-left">
<mask id="mask0_1_9" style="mask-type:luminance" maskUnits="userSpaceOnUse" x="-1" y="0" width="25" height="25">
<rect id="Background" x="-0.000152588" y="0.00012207" width="24" height="24" fill="white"/>
</mask>
<g mask="url(#mask0_1_9)">
<path id="Shape" fill-rule="evenodd" clip-rule="evenodd" d="M17.0308 2.46912C17.1718 2.60983 17.2511 2.80088 17.2511 3.00012C17.2511 3.19936 17.1718 3.39041 17.0308 3.53112L8.56028 12.0001L17.0308 20.4691C17.324 20.7623 17.3241 21.2378 17.0309 21.531C16.7377 21.8243 16.2623 21.8244 15.969 21.5313L6.96878 12.5311C6.82772 12.3904 6.74844 12.1994 6.74844 12.0001C6.74844 11.8009 6.82772 11.6098 6.96878 11.4691L15.9688 2.46912C16.1095 2.32806 16.3005 2.24878 16.4998 2.24878C16.699 2.24878 16.8901 2.32806 17.0308 2.46912V2.46912Z" fill="#757575"/>
</g>
</g>
</svg>
