<svg width="18" height="18" viewBox="0 0 18 18" fill="none" xmlns="http://www.w3.org/2000/svg">
<g id="info">
<mask id="mask0_1_14" style="mask-type:luminance" maskUnits="userSpaceOnUse" x="-1" y="-1" width="19" height="19">
<rect id="Background" x="-0.00012207" y="-0.000366211" width="18" height="18" fill="white"/>
</mask>
<g mask="url(#mask0_1_14)">
<path id="Shape" fill-rule="evenodd" clip-rule="evenodd" d="M11.1886 -0.000366211C12.3946 -0.000366211 12.9976 0.820434 12.9976 1.76093C12.9976 2.93543 11.95 4.02173 10.5865 4.02173C9.44441 4.02173 8.77841 3.34673 8.80991 2.23073C8.80991 1.29203 9.60281 -0.000366211 11.1886 -0.000366211V-0.000366211ZM7.47796 17.9996C6.52576 17.9996 5.82826 17.4128 6.49426 14.828L7.58686 10.2452C7.77676 9.51258 7.80826 9.21828 7.58686 9.21828C7.30156 9.21828 6.06676 9.72408 5.33506 10.2236L4.85986 9.43158C7.17466 7.46418 9.83776 6.31128 10.9808 6.31128C11.9321 6.31128 12.0905 7.45698 11.6153 9.21828L10.3634 14.0351C10.142 14.8856 10.2365 15.179 10.4588 15.179C10.7441 15.179 11.6801 14.8262 12.5999 14.0927L13.1399 14.8253C10.8881 17.1176 8.42836 17.9996 7.47796 17.9996V17.9996Z" fill="#9E9E9E"/>
</g>
</g>
</svg>
